<?xml version="1.0" encoding="UTF-8" standalone="no"?>
<svg
   version="1.1"
   preserveAspectRatio="none"
   x="0px"
   y="0px"
   width="186.25"
   height="534.05713"
   viewBox="0 0 186.25 534.05713"
   id="svg101"
   sodipodi:docname="bt-bonus.svg"
   inkscape:version="1.3.2 (091e20e, 2023-11-25, custom)"
   xml:space="preserve"
   inkscape:export-filename="..\..\..\..\..\..\..\..\Downloads\Groovebox\Groovebox\GroovBox\resources\app\app\img\bt-bonus.svg"
   inkscape:export-xdpi="96"
   inkscape:export-ydpi="96"
   xmlns:inkscape="http://www.inkscape.org/namespaces/inkscape"
   xmlns:sodipodi="http://sodipodi.sourceforge.net/DTD/sodipodi-0.dtd"
   xmlns:xlink="http://www.w3.org/1999/xlink"
   xmlns="http://www.w3.org/2000/svg"
   xmlns:svg="http://www.w3.org/2000/svg"><sodipodi:namedview
     id="namedview101"
     pagecolor="#ffffff"
     bordercolor="#000000"
     borderopacity="0.25"
     inkscape:showpageshadow="2"
     inkscape:pageopacity="0.0"
     inkscape:pagecheckerboard="0"
     inkscape:deskcolor="#d1d1d1"
     inkscape:zoom="20.368254"
     inkscape:cx="33.508027"
     inkscape:cy="99.984025"
     inkscape:window-width="1920"
     inkscape:window-height="1051"
     inkscape:window-x="-9"
     inkscape:window-y="-9"
     inkscape:window-maximized="1"
     inkscape:current-layer="svg101" /><defs
     id="defs51"><g
       id="Layer0_1_FILL"><path
         fill="#ffffff"
         stroke="none"
         d="m 19.75,458.5 q -0.9,0 -1.55,0.65 -0.65,0.65 -0.65,1.6 0,0.9 0.65,1.55 0.65,0.65 1.55,0.65 0.95,0 1.6,-0.65 0.65,-0.65 0.65,-1.55 0,-0.95 -0.65,-1.6 -0.65,-0.65 -1.6,-0.65 z"
         id="path2" /></g><g
       id="Layer0_2_FILL"><path
         fill="#ffffff"
         stroke="none"
         d="m 26,431.7 q -0.95,0 -1.6,0.65 -0.65,0.65 -0.65,1.55 0,0.95 0.65,1.6 0.65,0.65 1.6,0.65 0.9,0 1.55,-0.65 0.65,-0.65 0.65,-1.6 0,-0.9 -0.65,-1.55 Q 26.9,431.7 26,431.7 Z"
         id="path3" /></g><g
       id="Layer0_3_FILL"><path
         fill="#ffffff"
         stroke="none"
         d="m 33.65,470 1.6,2.15 q 3.4,3.4 8.1,3.4 4.75,0 8.1,-3.4 3.45,-3.35 3.45,-8.15 0.05,-4.75 -3.35,-8.15 v -0.05 q -0.8,-0.85 -1.9,-1.5 l -24.1,-15.3 6.5,12.3 -17.9,-12 19.5,30.7 m 2.75,-6.1 q 0,-2.9 2.1,-5 2.05,-2.05 5,-2.05 2.9,0 5,2.05 2.05,2.1 2.05,5.05 0,2.95 -2.05,4.95 -2.1,2.1 -5,2.1 -2.95,0 -5,-2.1 -2.1,-2.05 -2.1,-5 z"
         id="path4" /></g><g
       id="Layer0_4_FILL"><path
         fill="#ffffff"
         stroke="none"
         d="m 53.9,246.55 q -3.75,0.85 -5.4,-0.7 -1.2,-1.25 -1.35,-2.95 -0.1,-1.25 0.35,-2.45 0.05,-0.2 -0.15,-0.4 -0.15,-0.15 -0.35,-0.1 -3.5,0.85 -4.95,-1 -1.8,-2.55 0.2,-5.2 0.4,-0.45 -0.25,-0.7 -2.85,-0.55 -3.95,-1.9 -1.45,-1.85 -0.3,-4.8 -3.15,-0.45 -6.2,0.1 -6.25,1.15 -10.6,5.9 -4.35,4.8 -4.9,11.1 -0.65,8.35 5,14.5 5.65,6.1 13.95,6.1 7.5,0 12.95,-5.05 5.45,-5.1 5.95,-12.45 M 35,238.5 q 2.65,0 4.6,1.9 1.9,1.9 1.9,4.6 0,2.7 -1.9,4.6 -1.9,1.9 -4.6,1.9 -2.75,0 -4.6,-1.9 -1.9,-1.85 -1.9,-4.6 0,-2.7 1.9,-4.6 1.85,-1.9 4.6,-1.9 z"
         id="path5" /></g><g
       id="Layer0_5_FILL"><path
         fill="#ffffff"
         stroke="none"
         d="m 45.9,220.25 v -0.05 q -1.9,-0.45 -2.3,0.2 -0.1,0.3 -0.2,4.6 0,0.45 1.4,1.15 0.55,0.2 0.8,-0.15 l 2.1,-4.35 q 0.05,-0.25 -0.5,-0.75 -0.6,-0.5 -1.3,-0.65 z"
         id="path6" /></g><g
       id="Layer0_6_FILL"><path
         fill="#ffffff"
         stroke="none"
         d="m 52.25,232.85 q 1,-6.7 -1.05,-6.2 -2.65,0.6 -3.3,2.7 -0.35,1.1 -0.1,2.45 0.3,1.55 1.2,1.85 0.7,0.25 1.85,-0.05 1.2,-0.3 1.4,-0.75 z"
         id="path7" /></g><g
       id="Layer0_7_FILL"><path
         fill="#ffffff"
         stroke="none"
         d="m 187,237 h -24 l -3,9.5 h 30 z"
         id="path8" /></g><g
       id="Layer0_8_FILL"><path
         fill="#ffffff"
         stroke="none"
         d="m 157,251 -3,10 h 42 l -3,-10 z"
         id="path9" /></g><g
       id="Layer0_9_FILL"><path
         fill="#ffffff"
         stroke="none"
         d="m 183,223.5 h -16 v 9 h 4.65 V 228 h 6.5 v 4.5 H 183 Z"
         id="path10" /></g><g
       id="Layer0_10_FILL"><path
         fill="#ffffff"
         stroke="none"
         d="m 195.85,469.2 -21,-35.3 -20.8,35.3 h 41.8 m -17.9,-12.65 q -1.25,1.25 -2.95,1.25 -1.75,0 -3,-1.25 -1.2,-1.2 -1.2,-2.95 0,-1.75 1.2,-2.95 1.25,-1.25 3,-1.25 1.7,0 2.95,1.25 1.2,1.2 1.2,2.95 0,1.75 -1.2,2.95 z"
         id="path11" /></g><g
       id="Layer0_11_FILL"><path
         fill="#ffffff"
         stroke="none"
         d="m 93.05,254.15 -3.9,-3.95 q -2.4,2.4 -4.5,8.45 6,-2.15 8.4,-4.5 z"
         id="path12" /></g><g
       id="Layer0_12_FILL"><path
         fill="#ffffff"
         stroke="none"
         d="M 99.9,260.9 96,257 q -1.55,1.5 -3.15,5.1 -0.85,1.8 -1.35,3.3 6,-2.1 8.4,-4.5 z"
         id="path13" /></g><g
       id="Layer0_13_FILL"><path
         fill="#ffffff"
         stroke="none"
         d="m 123.9,231.1 q 0.05,-3.1 -0.85,-4 -0.85,-0.9 -3.95,-0.9 -3.35,0 -5.2,1.2 l -11.1,6.7 -12.2,-0.2 -5.7,5.7 25.8,25.8 5.7,-5.7 -0.35,-12.3 6.7,-11.1 q 1.15,-1.9 1.15,-5.2 m -10.35,13.7 -8.3,-8.2 11.1,-6.7 3.9,3.9 z"
         id="path14" /></g><g
       id="Layer0_14_FILL"><path
         fill="#ffffff"
         stroke="none"
         d="m 114.05,370.5 q 0.6,-2.2 0.45,-2.85 -0.05,-0.25 -0.6,-0.6 l -0.5,-0.3 q -0.25,-0.1 -0.6,-0.2 -0.6,-0.2 -0.8,-0.1 -0.35,0.2 -1.2,1.15 -0.45,0.5 -0.8,0.95 -6.45,-1.9 -11.35,-1.4 -3.05,0.3 -7.25,1.7 l -3.55,1.3 -1.8,3.6 q 1.15,1.35 6.2,4.7 1.8,-2.45 2.5,-3 0.95,-0.8 2,-0.2 1.1,0.7 -1.4,5.1 1.9,1.3 7,3.9 2.4,-4.8 4.3,-3.9 1.85,0.85 -0.5,5.8 6,2.75 7.3,3.2 1.95,-4.7 3.2,-4.2 1.1,0.4 1.1,1.7 0,1.1 -0.9,3.8 5.3,2 7.6,2.1 l 1.8,-3.6 q -1.6,-6.3 -4.2,-10.5 -1.6,-2.65 -4.95,-5.65 z"
         id="path15" /></g><g
       id="Layer0_15_FILL"><path
         fill="#ffffff"
         stroke="none"
         d="m 103.7,391.35 -4,-2 -7.3,14.8 4,2 z"
         id="path16" /></g><g
       id="Layer0_16_FILL"><path
         fill="#ffffff"
         stroke="none"
         d="m 181.65,381 -6.1,-4.1 -6.1,4.1 v -9.2 l -6.1,-8.2 -6.1,8.2 v 30.7 h 13.8 v -6.85 q 0,-1.9 1.35,-3.25 1.4,-1.4 3.25,-1.4 1.85,0 3.25,1.4 1.35,1.35 1.35,3.25 v 6.85 h 13.8 V 381 l -6.25,-4.1 z"
         id="path17" /></g><g
       id="Layer0_17_FILL"><path
         fill="#ffffff"
         stroke="none"
         d="m 25.55,388.5 q -6.5,4.6 -8.2,5.6 -1.3,0.8 -0.4,1.9 0.4,0.4 3.4,3.5 0.3,0.4 3.5,3.4 0.35,0.35 0.85,0.35 0.55,-0.05 1.05,-0.75 l 5.6,-8.2 q 6.85,4.1 13.2,4.95 4.35,0.6 9.8,-0.35 4.8,-0.65 3.9,-2.1 -3.4,-4.6 -8,-8.5 -2.85,-2.35 -5.75,-4 l -2.35,-1.2 2.8,-5.1 q 0.75,-1.3 1.2,-2.55 0.55,-1.55 0.2,-1.95 -0.55,-0.55 -4.5,1.4 l -5.1,2.8 q -1.4,-3.5 -5.2,-8.1 -4.3,-5.25 -8.5,-8 -1.25,-0.9 -2.1,3.9 -0.95,5.45 -0.35,9.8 0.85,6.3 4.95,13.2 z"
         id="path18" /></g><g
       id="Layer0_18_FILL"><path
         fill="#ffffff"
         stroke="none"
         d="m 118.95,457.7 q -4.3,-5.25 -10.65,-7.8 -6.35,-2.55 -13.05,-1.65 -5.65,0.7 -12.95,4.15 2.95,7.6 6.55,12 4.25,5.2 10.65,7.75 6.35,2.55 13,1.7 5.65,-0.75 13,-4.2 -2.95,-7.5 -6.55,-11.95 m -8.55,5.95 q -1.05,2.7 -3.75,3.85 -2.7,1.1 -5.45,0 -2.7,-1 -3.85,-3.7 -1.15,-2.75 -0.05,-5.5 1.05,-2.7 3.75,-3.85 2.7,-1.15 5.45,-0.05 2.7,1.15 3.85,3.8 1.15,2.75 0.05,5.45 z"
         id="path19" /></g><g
       id="Layer0_19_FILL"><path
         fill="#ffffff"
         stroke="none"
         d="m 89.4,436.15 q -1.75,1.15 -0.8,1.75 0.5,0.35 2.25,-0.05 1.55,-0.35 1.65,0.15 0.1,0.55 -0.85,1.1 -1.4,0.75 -1.65,1.05 -0.7,0.75 -0.2,1.15 0.6,0.45 2.8,0.1 4.9,-0.7 8.25,-0.55 4.5,0.25 8.95,1.95 4.65,1.8 7.75,4.45 2.8,2.45 6.15,7.25 0.55,0.85 1.1,0.5 0.65,-0.25 1,-0.5 0.45,-0.4 0.2,-1.2 -5.35,-11.8 -15.2,-16.65 -8.15,-4 -16.6,-2.35 -3,0.65 -4.8,1.85 z"
         id="path20" /></g><g
       id="Layer0_20_FILL"><path
         fill="#ffffff"
         stroke="none"
         d="m 170.85,95.2 q 0,0.9 -3.05,3.7 -3.4,3.2 -7.25,5.3 h 7.3 q -0.3,1.05 -3.55,3.85 -4,3.35 -8.55,5.55 h 38.55 q -4.6,-2.2 -8.5,-5.6 -3.3,-2.9 -3.3,-3.8 h 7.3 q -3.8,-2.1 -7.25,-5.3 -3.05,-2.85 -3.05,-3.7 h 7.15 q -4.7,-2.6 -8.45,-7.6 -2.85,-4.55 -3.05,-4.7 -1.25,2.2 -3.1,4.7 -3.75,5 -8.4,7.6 z"
         id="path21" /></g><g
       id="Layer0_21_FILL"><path
         fill="#ffffff"
         stroke="none"
         d="m 172.3,118.1 v 6.5 h 5.35 v -6.5 z"
         id="path22" /></g><g
       id="Layer0_22_FILL"><path
         fill="#ffffff"
         stroke="none"
         d="m 89.95,97.4 q 0.5,0.55 1.25,0.55 h 10.7 v 19.9 q -6.25,-1.4 -11.6,-5.9 l -5.3,1.5 q 3.75,5 9.95,8.5 5.65,3.2 10.05,3.5 4.35,-0.3 10,-3.5 6.2,-3.5 10,-8.5 L 119.65,112 q -5.25,4.55 -11.6,5.95 v -20 h 10.7 q 0.75,0 1.3,-0.55 0.5,-0.55 0.5,-1.3 0,-0.75 -0.5,-1.25 -0.55,-0.55 -1.3,-0.55 h -10.3 q 2.8,-1.8 2.8,-5.2 0,-2.6 -1.8,-4.4 -1.85,-1.75 -4.4,-1.75 -2.6,0 -4.4,1.8 -1.75,1.8 -1.75,4.35 0,3.4 2.8,5.2 H 91.2 q -0.75,0 -1.25,0.55 -0.55,0.5 -0.55,1.25 0,0.75 0.55,1.3 m 12.35,-8.15 q -0.05,-1.1 0.75,-1.95 0.8,-0.85 1.95,-0.85 1.15,0 1.95,0.75 0.85,0.8 0.85,1.9 0,1.15 -0.8,2 -0.8,0.85 -1.9,0.85 -1.15,0 -1.95,-0.8 -0.85,-0.8 -0.85,-1.9 z"
         id="path23" /></g><g
       id="Layer0_23_FILL"><path
         fill="#ffffff"
         stroke="none"
         d="m 32.05,85.15 q -1.75,4.7 -6.95,9.45 -2.7,2.5 -2.65,6.35 0,3.75 2.55,6.35 3.65,3.65 7.9,4.9 -2.25,-2.65 -2.6,-5.9 -0.25,-3 1.1,-5.2 1.65,-2.5 3.2,-4.55 l 1.2,-1.55 2.15,2 q 2.2,2.75 2.25,6.5 0.25,5.35 -3.2,8.7 2.6,-0.45 4.85,-1.85 2.3,-1.5 3.65,-3.55 2.05,-3.1 2.2,-6.95 Q 47.85,95.9 46,92.7 43.3,88 37.8,84.25 l -5,-2.85 z"
         id="path24" /></g><g
       id="Layer0_24_FILL"><path
         fill="#ffffff"
         stroke="none"
         d="m 46.6,117.45 q -0.65,-0.6 -1.55,-0.6 h -20.2 q -0.9,0 -1.55,0.6 -0.65,0.6 -0.65,1.5 v 6.5 h 24.6 v -6.5 q 0,-0.9 -0.65,-1.5 z"
         id="path25" /></g><g
       id="Layer0_25_FILL"><path
         fill="#ffffff"
         stroke="none"
         d="m 48.85,29.9 q -0.7,-0.7 -1.65,-0.65 h -2.8 v -5.4 q 0,-3.4 -2.7,-6.15 -2.9,-2.9 -6.8,-2.95 -3.9,0 -6.75,2.9 -2.75,2.8 -2.75,6.2 v 5.4 h -2.6 q -0.95,0 -1.65,0.65 -0.65,0.65 -0.65,1.6 v 17.3 q 0,1 0.65,1.65 0.7,0.65 1.65,0.65 h 24.4 q 1,0 1.65,-0.65 Q 49.5,49.8 49.5,48.8 V 31.6 q 0,-1 -0.65,-1.7 M 40.9,23.95 v 5.4 h -12 v -5.4 q 0,-1.95 1.6,-3.65 1.8,-1.95 4.4,-1.95 2.6,0 4.4,1.95 1.6,1.7 1.6,3.65 z"
         id="path26" /></g><g
       id="Layer0_26_FILL"><path
         fill="#ffffff"
         stroke="none"
         d="M 57.2,524.7 57,518.45 q -1.25,0.25 -3.15,0.9 -3.8,1.3 -6.95,3.5 l 0.1,2.2 q 0,10.15 -6.1,18.6 7.7,-1.05 12.3,-7.1 3.45,-4.7 4,-11.85 z"
         id="path27" /></g><g
       id="Layer0_27_FILL"><path
         fill="#ffffff"
         stroke="none"
         d="m 23.9,517.95 q 0.5,-2.15 1.6,-4.95 -1.8,-1.7 -3.8,-2.95 l -1.6,-0.9 -0.55,1.75 q -0.55,2.2 -0.75,4.55 2.5,0.95 5.1,2.5 z"
         id="path28" /></g><g
       id="Layer0_28_FILL"><path
         fill="#ffffff"
         stroke="none"
         d="m 38.7,511.35 -3.7,-4.85 -3.7,4.85 q -3.7,6.35 -3.7,13.65 0,7.35 3.7,13.65 1.85,3.15 3.7,4.85 1.85,-1.7 3.7,-4.85 3.7,-6.3 3.7,-13.65 0,-7.3 -3.7,-13.65 z"
         id="path29" /></g><g
       id="Layer0_29_FILL"><path
         fill="#ffffff"
         stroke="none"
         d="M 51.15,515.45 H 51.2 Q 51,513 50.45,510.85 l -0.55,-1.7 -1.55,0.9 q -1.95,1.25 -3.85,3 1.25,3.45 1.55,4.9 2.5,-1.5 5.1,-2.5 z"
         id="path30" /></g><g
       id="Layer0_30_FILL"><path
         fill="#ffffff"
         stroke="none"
         d="m 13,518.45 h -0.05 l -0.2,6.25 q 0.5,7.15 4,11.85 4.7,6.1 12.35,7.1 Q 23,535.2 23,525.05 l 0.1,-2.2 q -3.1,-2.2 -6.9,-3.5 z"
         id="path31" /></g><g
       id="Layer0_31_FILL"><path
         fill="#ffffff"
         stroke="none"
         d="m 123,518.5 1,-4 H 86 l 1,4 V 544 h 11.3 v -18.75 q 0,-2.8 1.95,-4.8 1.95,-1.95 4.75,-1.95 2.75,0 4.7,1.95 1.95,2 1.95,4.8 V 544 H 123 Z"
         id="path32" /></g><g
       id="Layer0_32_FILL"><path
         fill="#ffffff"
         stroke="none"
         d="m 89,506 -1,4 h 34 l -1,-4 h -9.85 l -6.15,-4 -6.2,4 z"
         id="path33" /></g><g
       id="Layer0_33_FILL"><path
         fill="#ffffff"
         stroke="none"
         d="m 194,513.85 v -0.05 q -3.25,-2.4 -9.85,-2.8 1,-3.85 1.35,-4.7 0.6,-1.65 -0.1,-1.7 -0.65,-0.05 -1.4,0.9 -1.55,1.8 -2.9,4.3 -0.45,0.8 -1.15,0.65 -0.7,-0.2 -0.55,-1.05 0.45,-3.05 2.1,-7 0.5,-1.15 -0.15,-1.3 -0.65,-0.1 -1.25,0.55 -2,2.05 -4.7,7.25 -0.45,0.95 -1.25,0.7 -0.8,-0.2 -0.65,-1.1 0.25,-1.6 1.5,-4.9 0.95,-2.55 1.4,-3.45 0.35,-0.75 -0.25,-1 -0.65,-0.25 -1.55,0.6 -0.8,0.7 -2.35,2.9 -2.05,2.95 -3.55,6.2 -6.6,-1.25 -11,1.5 -4.55,2.95 -4.95,8.8 -0.45,5.5 2.95,9.2 3.25,3.65 3.8,4.4 1.55,2.2 2.4,5.4 1.25,4.5 4,7.2 2.85,2.9 7.1,3.4 3.7,0.4 6.9,-2 2.65,-1.95 4.7,-5.6 1.55,-2.7 3.75,-4.85 2.05,-2 6.15,-4.95 4.3,-3.05 4,-8.8 -0.3,-5.6 -4.5,-8.7 m -8,2.65 q 2.65,0.3 4.3,2.4 1.65,2.1 1.3,4.8 -0.3,2.65 -2.4,4.3 -2.1,1.65 -4.8,1.3 -2.65,-0.3 -4.3,-2.4 -1.65,-2.1 -1.3,-4.8 0.25,-2.65 2.4,-4.3 2.1,-1.65 4.8,-1.3 m -20.9,-2.2 q 2.55,0.3 4.15,2.35 1.6,2 1.25,4.55 -0.25,2.55 -2.25,4.15 -2.05,1.55 -4.65,1.25 -2.55,-0.3 -4.15,-2.3 -1.6,-2.05 -1.25,-4.6 0.3,-2.55 2.35,-4.15 2,-1.6 4.55,-1.25 m 8.6,12.8 q 0.7,0.15 1.55,2.8 0.8,2.6 0.55,3.7 -0.4,1.65 -3.8,1 -2.95,-0.6 -2.4,-2.5 0.25,-1 1.8,-3 1.6,-2.15 2.3,-2 z"
         id="path34" /></g><g
       id="Layer0_34_FILL"><path
         fill="#ffffff"
         stroke="none"
         d="m 30.25,588 -5.25,-5.2 -0.25,-9 q 0,-0.5 -0.4,-0.85 -0.35,-0.35 -0.85,-0.45 -0.55,0 -0.95,0.4 -0.35,0.35 -0.35,0.9 l -0.2,9 -5.25,5.2 v 24.5 h 13.5 z"
         id="path35" /></g><g
       id="Layer0_36_FILL"><path
         fill="#ffffff"
         stroke="none"
         d="m 83.15,581.1 q -0.7,0.2 -0.5,1.15 l 4.1,16.5 q -4,0.85 -5.4,3.5 2.6,1.7 6.5,0.7 l 0.9,3.55 8.1,-1 -1.7,6.95 q 0.2,0.7 0.6,0.7 l 10.9,-2.4 q 0.8,-0.15 0.9,-0.95 l 2.95,-6.3 3.15,-0.75 q 3.8,-1.05 7.25,-2.3 5.15,-1.85 8.45,-4.35 l 2.3,-2.1 -0.8,-3 q -2.1,-0.5 -5.3,-0.85 -6.45,-0.65 -12.1,0.3 l -17.8,2.9 q -10.6,-11.1 -11.15,-11.7 -0.7,-0.75 -1.35,-0.55 z"
         id="path37" /></g><g
       id="Layer0_37_FILL"><path
         fill="#ffffff"
         stroke="none"
         d="m 109.3,582.9 q -2.1,-1.3 -4.4,-1.3 -3,0 -5.2,2.05 -2.15,1.95 -2.7,4.95 l 15.4,-2.5 q -1.05,-2 -3.1,-3.2 z"
         id="path38" /></g><g
       id="Layer0_38_FILL"><path
         fill="#ffffff"
         stroke="none"
         d="M 186.65,607.3 174.35,573.75 152,607.3 Z"
         id="path39" /></g><g
       id="Layer0_39_FILL"><path
         fill="#ffffff"
         stroke="none"
         d="m 191.5,607.35 h 7.5 l -17.7,-27.9 z"
         id="path40" /></g></defs><g
     transform="translate(-12.75,-14.75)"
     id="g52"
     style="fill:#f9f9f9"><use
       xlink:href="#Layer0_1_FILL"
       id="use52"
       style="fill:#f9f9f9" /></g><g
     transform="translate(-12.75,-14.75)"
     id="g53"
     style="fill:#f9f9f9"><use
       xlink:href="#Layer0_2_FILL"
       id="use53"
       style="fill:#f9f9f9" /></g><g
     transform="translate(-12.75,-14.75)"
     id="g54"
     style="fill:#f9f9f9"><use
       xlink:href="#Layer0_3_FILL"
       id="use54"
       style="fill:#f9f9f9" /></g><g
     transform="translate(-12.75,55.25)"
     id="g55"
     style="fill:#f9f9f9"><use
       xlink:href="#Layer0_4_FILL"
       id="use55"
       style="fill:#f9f9f9" /></g><g
     transform="translate(-12.75,55.25)"
     id="g56"
     style="fill:#f9f9f9"><use
       xlink:href="#Layer0_5_FILL"
       id="use56"
       style="fill:#f9f9f9" /></g><g
     transform="translate(-12.75,55.25)"
     id="g57"
     style="fill:#f9f9f9"><use
       xlink:href="#Layer0_6_FILL"
       id="use57"
       style="fill:#f9f9f9" /></g><g
     transform="translate(-12.75,55.25)"
     id="g58"
     style="fill:#f9f9f9"><use
       xlink:href="#Layer0_7_FILL"
       id="use58"
       style="fill:#f9f9f9" /></g><g
     transform="translate(-12.75,55.25)"
     id="g59"
     style="fill:#f9f9f9"><use
       xlink:href="#Layer0_8_FILL"
       id="use59"
       style="fill:#f9f9f9" /></g><g
     transform="translate(-12.75,55.25)"
     id="g60"
     style="fill:#f9f9f9"><use
       xlink:href="#Layer0_9_FILL"
       id="use60"
       style="fill:#f9f9f9" /></g><g
     transform="translate(-12.75,-14.75)"
     id="g61"
     style="fill:#f9f9f9"><use
       xlink:href="#Layer0_10_FILL"
       id="use61"
       style="fill:#f9f9f9" /></g><g
     transform="translate(-12.75,55.25)"
     id="g62"
     style="fill:#f9f9f9"><use
       xlink:href="#Layer0_11_FILL"
       id="use62"
       style="fill:#f9f9f9" /></g><g
     transform="translate(-12.75,55.25)"
     id="g63"
     style="fill:#f9f9f9"><use
       xlink:href="#Layer0_12_FILL"
       id="use63"
       style="fill:#f9f9f9" /></g><g
     transform="translate(-12.75,55.25)"
     id="g64"
     style="fill:#f9f9f9"><use
       xlink:href="#Layer0_13_FILL"
       id="use64"
       style="fill:#f9f9f9" /></g><g
     transform="translate(-12.75,-14.75)"
     id="g65"
     style="fill:#f9f9f9"><use
       xlink:href="#Layer0_14_FILL"
       id="use65"
       style="fill:#f9f9f9" /></g><g
     transform="translate(-12.75,-14.75)"
     id="g66"
     style="fill:#f9f9f9"><use
       xlink:href="#Layer0_15_FILL"
       id="use66"
       style="fill:#f9f9f9" /></g><g
     transform="translate(-12.75,-14.75)"
     id="g67"
     style="fill:#f9f9f9"><use
       xlink:href="#Layer0_16_FILL"
       id="use67"
       style="fill:#f9f9f9" /></g><g
     transform="translate(-12.75,-14.75)"
     id="g68"
     style="fill:#f9f9f9"><use
       xlink:href="#Layer0_17_FILL"
       id="use68"
       style="fill:#f9f9f9" /></g><g
     transform="translate(-12.75,-14.75)"
     id="g69"
     style="fill:#f9f9f9"><use
       xlink:href="#Layer0_18_FILL"
       id="use69"
       style="fill:#f9f9f9" /></g><g
     transform="translate(-12.75,-14.75)"
     id="g70"
     style="fill:#f9f9f9"><use
       xlink:href="#Layer0_19_FILL"
       id="use70"
       style="fill:#f9f9f9" /></g><g
     transform="translate(-12.75,125.25)"
     id="g71"
     style="fill:#f9f9f9"><use
       xlink:href="#Layer0_20_FILL"
       id="use71"
       style="fill:#f9f9f9" /></g><g
     transform="translate(-12.75,125.25)"
     id="g72"
     style="fill:#f9f9f9"><use
       xlink:href="#Layer0_21_FILL"
       id="use72"
       style="fill:#f9f9f9" /></g><g
     transform="translate(-12.75,125.25)"
     id="g73"
     style="fill:#f9f9f9"><use
       xlink:href="#Layer0_22_FILL"
       id="use73"
       style="fill:#f9f9f9" /></g><g
     transform="translate(-12.75,125.25)"
     id="g74"
     style="fill:#f9f9f9"><use
       xlink:href="#Layer0_23_FILL"
       id="use74"
       style="fill:#f9f9f9" /></g><g
     transform="translate(-12.75,125.25)"
     id="g75"
     style="fill:#f9f9f9"><use
       xlink:href="#Layer0_24_FILL"
       id="use75"
       style="fill:#f9f9f9" /></g><g
     transform="translate(-12.75,-14.75)"
     id="g76"
     style="fill:#f9f9f9"><use
       xlink:href="#Layer0_25_FILL"
       id="use76"
       style="fill:#f9f9f9" /></g><g
     transform="translate(-12.75,-14.75)"
     id="g77"
     style="fill:#f9f9f9"><use
       xlink:href="#Layer0_26_FILL"
       id="use77"
       style="fill:#f9f9f9" /></g><g
     transform="translate(-12.75,-14.75)"
     id="g78"
     style="fill:#f9f9f9"><use
       xlink:href="#Layer0_27_FILL"
       id="use78"
       style="fill:#f9f9f9" /></g><g
     transform="translate(-12.75,-14.75)"
     id="g79"
     style="fill:#f9f9f9"><use
       xlink:href="#Layer0_28_FILL"
       id="use79"
       style="fill:#f9f9f9" /></g><g
     transform="translate(-12.75,-14.75)"
     id="g80"
     style="fill:#f9f9f9"><use
       xlink:href="#Layer0_29_FILL"
       id="use80"
       style="fill:#f9f9f9" /></g><g
     transform="translate(-12.75,-14.75)"
     id="g81"
     style="fill:#f9f9f9"><use
       xlink:href="#Layer0_30_FILL"
       id="use81"
       style="fill:#f9f9f9" /></g><g
     transform="translate(-12.75,-14.75)"
     id="g82"
     style="fill:#f9f9f9"><use
       xlink:href="#Layer0_31_FILL"
       id="use82"
       style="fill:#f9f9f9" /></g><g
     transform="translate(-12.75,-14.75)"
     id="g83"
     style="fill:#f9f9f9"><use
       xlink:href="#Layer0_32_FILL"
       id="use83"
       style="fill:#f9f9f9" /></g><g
     transform="translate(-12.75,-14.75)"
     id="g84"
     style="fill:#f9f9f9"><use
       xlink:href="#Layer0_33_FILL"
       id="use84"
       style="fill:#f9f9f9" /></g><g
     transform="translate(-12.75,-435.2)"
     id="g85"
     style="fill:#f9f9f9"><use
       xlink:href="#Layer0_34_FILL"
       id="use85"
       style="fill:#f9f9f9" /></g><g
     transform="translate(-12.75,-435.2)"
     id="g87"
     style="fill:#f9f9f9"><use
       xlink:href="#Layer0_36_FILL"
       id="use87"
       style="fill:#f9f9f9" /></g><g
     transform="translate(-12.75,-435.2)"
     id="g88"
     style="fill:#f9f9f9"><use
       xlink:href="#Layer0_37_FILL"
       id="use88"
       style="fill:#f9f9f9" /></g><g
     transform="translate(-12.75,-435.2)"
     id="g89"
     style="fill:#f9f9f9"><use
       xlink:href="#Layer0_38_FILL"
       id="use89"
       style="fill:#f9f9f9" /></g><g
     transform="translate(-12.75,-435.2)"
     id="g90"
     style="fill:#f9f9f9"><use
       xlink:href="#Layer0_39_FILL"
       id="use90"
       style="fill:#f9f9f9" /></g><g
     id="shirt_design"
     style="clip-rule:evenodd;fill:#f9f9f9;fill-rule:evenodd;image-rendering:optimizeQuality;shape-rendering:geometricPrecision;text-rendering:geometricPrecision"
     transform="matrix(0.00288801,0,0,0.00281971,-209.8315,-194.08265)">
   <path
   class="fil2"
   d="m 102598,99221 c 6,1 356,916 178,394 l 1537,-577 c 167,317 333,631 489,933 146,282 652,536 760,785 30,69 -514,-26 -452,28 182,159 643,502 697,704 20,81 -271,-44 -304,15 96,103 914,816 987,909 69,88 -483,-440 -634,-145 0,324 241,114 859,1330 -504,-885 -806,1 -806,1 574,540 -237,534 -152,834 120,418 572,853 846,914 -775,1 -1059,-127 -1063,-108 366,473 230,968 -95,1292 -404,-1740 -2231,26 -1231,903 -1100,-256 -604,-1167 -604,-1167 -223,87 -894,237 -1229,270 738,-498 920,-671 1250,-2009 -504,524 -3,1185 -2552,1451 370,-218 1104,-744 950,-1130 -104,-262 -1068,332 -1846,685 551,-347 26,-771 657,-1118 88,-49 -160,148 -507,213 -404,74 -959,17 -1451,-44 809,-99 1920,-315 1335,-869 -31,-29 -288,48 -758,180 -472,133 -899,56 -1460,-207 1333,64 1821,-609 1770,-664 -84,-93 -445,-372 -1091,-166 408,-152 730,-531 820,-787 6,-19 -463,-395 -1047,-58 312,-279 1021,-490 936,-696 -44,-106 -1024,553 -992,590 295,-723 1457,-993 1626,-1092 0,0 -190,-197 -612,-156 655,-219 841,-341 1071,-385 174,-34 -179,-154 -384,-221 818,-615 1083,89 1280,-65 -118,-175 150,-392 -331,-434 487,-316 1034,-415 1552,-332 v 0 z"
   id="path126"
   style="fill:#f9f9f9" />
   <path
   class="fil2"
   d="m 109924,100185 c 4,0 -98,-108 -198,-401 h 1158 c 94,178 187,354 275,524 81,159 366,302 427,441 16,39 -289,-14 -255,16 103,90 362,283 392,396 12,45 -152,-25 -170,8 54,58 514,459 554,510 39,51 -271,-247 -356,-80 0,182 135,63 483,747 -283,-497 -453,1 -453,1 322,304 -134,300 -85,469 67,235 321,479 475,513 -435,1 -595,-71 -597,-60 205,266 129,544 -54,726 -226,-978 -1254,14 -691,507 -619,-143 -340,-656 -340,-656 -125,49 -502,134 -691,152 415,-280 518,-377 702,-1129 -282,294 0,666 -1433,816 207,-123 620,-418 534,-635 -59,-147 -600,186 -1038,385 310,-196 14,-434 369,-630 50,-26 -90,85 -284,121 -227,42 -539,9 -816,-25 455,-55 1079,-177 750,-488 -17,-17 -161,26 -426,101 -265,74 -505,31 -821,-117 749,36 1024,-342 995,-373 -47,-52 -250,-208 -613,-94 229,-84 410,-297 461,-442 4,-10 -260,-221 -588,-32 175,-156 573,-276 525,-391 -24,-60 -519,74 -501,95 188,-257 762,-321 858,-378 0,0 -107,-111 -344,-87 369,-123 482,-80 611,-106 99,-19 -110,-197 -225,-236 244,-13 609,51 720,-36 -66,-98 -87,-103 -231,-147 452,-9 719,20 922,15 v 0 z"
   id="path127"
   style="fill:#f9f9f9" />
   <path
   class="fil2"
   d="m 100251,92728 c -35,280 3044,6749 3013,6749 -382,10 -1140,-210 -1714,6 223,59 535,206 381,279 -168,79 -969,-84 -1298,34 173,84 552,366 366,402 -244,48 -774,58 -1000,272 249,-51 673,47 585,107 -159,109 -1437,314 -1527,793 0,2 -1,4 -1,7 -2,-2 -1,-5 1,-7 50,-66 929,-407 939,-246 13,193 -1051,513 -1051,817 514,-413 1069,-227 1113,-121 74,176 -607,680 -1129,1051 683,-218 1318,-200 1408,-101 54,58 -623,694 -2031,626 593,280 1229,539 1726,399 497,-140 745,-326 779,-295 618,585 -556,814 -1410,917 519,66 1105,126 1533,47 157,-28 296,-84 394,-133 132,-66 194,-121 141,-92 -56,30 -101,61 -141,92 -444,347 -18,753 -554,1090 822,-373 1841,-1001 1951,-724 163,408 -613,964 -1004,1194 2693,-282 2165,-980 2696,-1534 -348,1414 -540,1597 -1321,2123 354,-34 1063,-193 1299,-286 0,0 -525,964 638,1233 -1056,-925 874,-2791 1300,-953 344,-343 488,-865 102,-1365 15,-169 316,170 1139,66 -289,-64 -783,-475 -910,-918 -92,-318 767,-310 159,-881 0,0 292,-497 823,437 -383,-1569 -724,-1180 -724,-1522 159,-312 742,246 669,152 -77,-97 -1094,-1173 -1195,-1281 34,-61 342,70 320,-15 -56,-214 -543,-576 -736,-744 -65,-57 509,43 477,-30 -113,-262 -648,-531 -802,-829 -1131,-2189 -4058,-6169 -3899,-6172 1405,442 2445,850 4085,1670 811,497 1655,1027 2349,1464 201,452 2028,3195 2026,3195 -229,3 -683,-126 -1028,3 133,35 321,123 228,168 -100,46 -581,-52 -778,20 103,50 331,219 219,241 -145,28 -464,35 -599,163 149,-30 403,29 351,65 -95,65 -862,187 -916,475 0,2 0,3 -1,4 0,-1 0,-2 1,-4 30,-40 557,-244 563,-148 8,116 -630,309 -630,490 308,-248 641,-136 667,-73 45,106 -364,408 -677,630 410,-130 791,-119 845,-60 31,35 -374,416 -1218,376 356,166 737,322 1035,239 298,-84 447,-196 466,-178 372,351 -333,488 -844,551 310,39 662,75 919,28 93,-17 176,-50 236,-80 78,-39 116,-72 84,-55 -33,18 -60,36 -84,55 -266,209 -11,452 -333,654 494,-224 1105,-600 1170,-435 98,245 -367,578 -602,716 1615,-168 1298,-587 1617,-919 -209,847 -325,957 -792,1272 212,-20 637,-116 779,-171 0,0 -314,578 382,740 -633,-556 524,-1675 780,-573 206,-205 292,-518 61,-818 10,-101 189,103 683,40 -174,-39 -469,-285 -546,-550 -55,-190 460,-186 96,-529 0,0 174,-298 493,263 -229,-941 -434,-708 -434,-914 95,-186 445,149 400,92 -45,-58 -655,-703 -716,-768 21,-37 205,42 192,-9 -34,-128 -326,-345 -442,-446 -38,-34 307,25 287,-18 -68,-158 -389,-319 -481,-497 -992,-1116 -2429,-2464 -3188,-3395 -2100,-1540 -5215,-3088 -8210,-3618 z"
   id="path128"
   style="fill:#f9f9f9" />
   <path
   class="fil0"
   d="m 100251,92728 c -35,280 3044,6749 3013,6749 -382,10 -1140,-210 -1714,6 223,59 535,206 381,279 -168,79 -969,-84 -1298,34 173,84 552,366 366,402 -244,48 -774,58 -1000,272 249,-51 673,47 585,107 -159,109 -1437,314 -1527,793 0,2 -1,4 -1,7 -2,-2 -1,-5 1,-7 50,-66 929,-407 939,-246 13,193 -1051,513 -1051,817 514,-413 1069,-227 1113,-121 74,176 -607,680 -1129,1051 683,-218 1318,-200 1408,-101 54,58 -623,694 -2031,626 593,280 1229,539 1726,399 497,-140 745,-326 779,-295 618,585 -556,814 -1410,917 519,66 1105,126 1533,47 157,-28 296,-84 394,-133 132,-66 194,-121 141,-92 -56,30 -101,61 -141,92 -444,347 -18,753 -554,1090 822,-373 1841,-1001 1951,-724 163,408 -613,964 -1004,1194 2693,-282 2165,-980 2696,-1534 -348,1414 -540,1597 -1321,2123 354,-34 1063,-193 1299,-286 0,0 -525,964 638,1233 -1056,-925 874,-2791 1300,-953 344,-343 488,-865 102,-1365 15,-169 316,170 1139,66 -289,-64 -783,-475 -910,-918 -92,-318 767,-310 159,-881 0,0 292,-497 823,437 -383,-1569 -724,-1180 -724,-1522 159,-312 742,246 669,152 -77,-97 -1094,-1173 -1195,-1281 34,-61 342,70 320,-15 -56,-214 -543,-576 -736,-744 -65,-57 509,43 477,-30 -113,-262 -648,-531 -802,-829 -1131,-2189 -4058,-6169 -3899,-6172 1405,442 2445,850 4085,1670 811,497 1655,1027 2349,1464 201,452 2028,3195 2026,3195 -229,3 -683,-126 -1028,3 133,35 321,123 228,168 -100,46 -581,-52 -778,20 103,50 331,219 219,241 -145,28 -464,35 -599,163 149,-30 403,29 351,65 -95,65 -862,187 -916,475 0,2 0,3 -1,4 0,-1 0,-2 1,-4 30,-40 557,-244 563,-148 8,116 -630,309 -630,490 308,-248 641,-136 667,-73 45,106 -364,408 -677,630 410,-130 791,-119 845,-60 31,35 -374,416 -1218,376 356,166 737,322 1035,239 298,-84 447,-196 466,-178 372,351 -333,488 -844,551 310,39 662,75 919,28 93,-17 176,-50 236,-80 78,-39 116,-72 84,-55 -33,18 -60,36 -84,55 -266,209 -11,452 -333,654 494,-224 1105,-600 1170,-435 98,245 -367,578 -602,716 1615,-168 1298,-587 1617,-919 -209,847 -325,957 -792,1272 212,-20 637,-116 779,-171 0,0 -314,578 382,740 -633,-556 524,-1675 780,-573 206,-205 292,-518 61,-818 10,-101 189,103 683,40 -174,-39 -469,-285 -546,-550 -55,-190 460,-186 96,-529 0,0 174,-298 493,263 -229,-941 -434,-708 -434,-914 95,-186 445,149 400,92 -45,-58 -655,-703 -716,-768 21,-37 205,42 192,-9 -34,-128 -326,-345 -442,-446 -38,-34 307,25 287,-18 -68,-158 -389,-319 -481,-497 -992,-1116 -2429,-2464 -3188,-3395 -2100,-1540 -5215,-3088 -8210,-3618 z"
   id="path129"
   style="fill:#f9f9f9;fill-rule:nonzero" />
   <path
   class="fil0"
   d="m 100251,92728 c -35,280 3044,6749 3013,6749 -382,10 -1140,-210 -1714,6 223,59 535,206 381,279 -168,79 -969,-84 -1298,34 173,84 552,366 366,402 -244,48 -774,58 -1000,272 249,-51 673,47 585,107 -159,109 -1437,314 -1527,793 0,2 -1,4 -1,7 -2,-2 -1,-5 1,-7 50,-66 929,-407 939,-246 13,193 -1051,513 -1051,817 514,-413 1069,-227 1113,-121 74,176 -607,680 -1129,1051 683,-218 1318,-200 1408,-101 54,58 -623,694 -2031,626 593,280 1229,539 1726,399 497,-140 745,-326 779,-295 618,585 -556,814 -1410,917 519,66 1105,126 1533,47 157,-28 296,-84 394,-133 132,-66 194,-121 141,-92 -56,30 -101,61 -141,92 -444,347 -18,753 -554,1090 822,-373 1841,-1001 1951,-724 163,408 -613,964 -1004,1194 2693,-282 2165,-980 2696,-1534 -348,1414 -540,1597 -1321,2123 354,-34 1063,-193 1299,-286 0,0 -525,964 638,1233 -1056,-925 874,-2791 1300,-953 344,-343 488,-865 102,-1365 15,-169 316,170 1139,66 -289,-64 -783,-475 -910,-918 -92,-318 767,-310 159,-881 0,0 292,-497 823,437 -383,-1569 -724,-1180 -724,-1522 159,-312 742,246 669,152 -77,-97 -1094,-1173 -1195,-1281 34,-61 342,70 320,-15 -56,-214 -543,-576 -736,-744 -65,-57 509,43 477,-30 -113,-262 -648,-531 -802,-829 -1131,-2189 -4058,-6169 -3899,-6172 1405,442 2445,850 4085,1670 811,497 1655,1027 2349,1464 201,452 2028,3195 2026,3195 -229,3 -683,-126 -1028,3 133,35 321,123 228,168 -100,46 -581,-52 -778,20 103,50 331,219 219,241 -145,28 -464,35 -599,163 149,-30 403,29 351,65 -95,65 -862,187 -916,475 0,2 0,3 -1,4 0,-1 0,-2 1,-4 30,-40 557,-244 563,-148 8,116 -630,309 -630,490 308,-248 641,-136 667,-73 45,106 -364,408 -677,630 410,-130 791,-119 845,-60 31,35 -374,416 -1218,376 356,166 737,322 1035,239 298,-84 447,-196 466,-178 372,351 -333,488 -844,551 310,39 662,75 919,28 93,-17 176,-50 236,-80 78,-39 116,-72 84,-55 -33,18 -60,36 -84,55 -266,209 -11,452 -333,654 494,-224 1105,-600 1170,-435 98,245 -367,578 -602,716 1615,-168 1298,-587 1617,-919 -209,847 -325,957 -792,1272 212,-20 637,-116 779,-171 0,0 -314,578 382,740 -633,-556 524,-1675 780,-573 206,-205 292,-518 61,-818 10,-101 189,103 683,40 -174,-39 -469,-285 -546,-550 -55,-190 460,-186 96,-529 0,0 174,-298 493,263 -229,-941 -434,-708 -434,-914 95,-186 445,149 400,92 -45,-58 -655,-703 -716,-768 21,-37 205,42 192,-9 -34,-128 -326,-345 -442,-446 -38,-34 307,25 287,-18 -68,-158 -389,-319 -481,-497 -992,-1116 -2429,-2464 -3188,-3395 -2100,-1540 -5215,-3088 -8210,-3618 z"
   id="path130"
   style="fill:#f9f9f9;fill-rule:nonzero" />
   <path
   class="fil2"
   d="m 101755,93371 c 2667,736 4499,1857 6435,3135 108,176 7,32 115,209 -2240,-1294 -4272,-2142 -6283,-2864 -89,-159 -177,-319 -267,-480 z"
   id="path131"
   style="fill:#f9f9f9" />
   <path
   class="fil2"
   d="m 110084,99693 c -1118,-1399 -1199,-1717 -2622,-3471 56,-18 744,385 786,389 1130,1684 1121,1372 1967,3090 -22,0 -92,-4 -131,-9 z"
   id="path132"
   style="fill:#f9f9f9" />
   <path
   class="fil2"
   d="m 102723,99540 c -741,-1805 -1040,-4071 -2552,-6451 56,-20 38,-365 80,-361 1130,1685 2473,4926 3013,6749 -22,0 -502,67 -541,63 z"
   id="path133"
   style="fill:#f9f9f9" />
  </g><path
     class="fil2"
     d="m 17.019856,70.827007 1.088223,-0.0051 0.255562,0.72823 25.243256,0.08242 0.351738,-0.458915 1.022268,-0.03846 0.453427,4.253922 H 16.533463 l -0.277546,2.605114 h 29.455959 l 0.335255,3.135495 H 15.923407 Z m 6.57051,25.16081 h 15.710386 l 0.145659,10.231073 H 23.444719 Z M 46.324688,83.734421 48.726443,106.21867 H 13.246841 l 2.396264,-22.484249 z"
     id="path134"
     style="clip-rule:evenodd;fill:#f9f9f9;fill-rule:evenodd;stroke-width:0.00274801;image-rendering:optimizeQuality;shape-rendering:geometricPrecision;text-rendering:geometricPrecision"
     sodipodi:nodetypes="ccccccccccccccccccccccc" /></svg>
