<?xml version="1.0" encoding="UTF-8" standalone="no"?>
<svg
   viewBox="0 0 126 150"
   version="1.1"
   id="svg14"
   sodipodi:docname="switch-casque.svg"
   inkscape:version="1.3.2 (091e20e, 2023-11-25, custom)"
   xmlns:inkscape="http://www.inkscape.org/namespaces/inkscape"
   xmlns:sodipodi="http://sodipodi.sourceforge.net/DTD/sodipodi-0.dtd"
   xmlns="http://www.w3.org/2000/svg"
   xmlns:svg="http://www.w3.org/2000/svg">
  <defs
     id="defs14" />
  <sodipodi:namedview
     id="namedview14"
     pagecolor="#ffffff"
     bordercolor="#000000"
     borderopacity="0.25"
     inkscape:showpageshadow="2"
     inkscape:pageopacity="0.0"
     inkscape:pagecheckerboard="0"
     inkscape:deskcolor="#d1d1d1"
     inkscape:zoom="1.9728279"
     inkscape:cx="14.446268"
     inkscape:cy="173.60865"
     inkscape:window-width="1920"
     inkscape:window-height="1051"
     inkscape:window-x="-9"
     inkscape:window-y="-9"
     inkscape:window-maximized="1"
     inkscape:current-layer="svg14" />
  <path
     d="m0 0h126v150h-126z"
     fill="none"
     opacity=".6"
     id="path6" />
  <path
     d="m102.63 59.17a5.86 5.86 0 0 0 -4.63 2.56c-.11 6.62-.36 14.94-.9 19.59a13.53 13.53 0 0 1 -.29 3v8c0 2.28 2.41 5.81 5.39 5.81a6.27 6.27 0 0 0 6.23-5.81v-27.67c.01-3.1-1.94-5.48-5.8-5.48z"
     fill="#167085"
     id="path8" />
  <g
     id="_2394738094304"
     style="clip-rule:evenodd;fill-rule:evenodd;image-rendering:optimizeQuality;shape-rendering:geometricPrecision;text-rendering:geometricPrecision"
     transform="matrix(0.00781454,0,0,0.00781454,-933.81412,-1149.0661)">
   <g
   id="g28">
    <g
   id="g3">
     <g
   id="g2">
      <path
   class="fil0"
   d="m 129249,147857 -835,-107 -1049,61 c -489,-34 -959,19 -1410,158 -431,129 -928,363 -1492,702 -434,262 -842,640 -1222,1136 -190,248 -336,468 -438,662 -135,217 -274,533 -417,947 -278,835 -428,1756 -448,2764 3,37 -166,224 -509,560 -340,336 -511,521 -514,555 l 402,-41 478,-112 c -57,1083 -334,1972 -830,2668 -244,343 -458,575 -641,698 411,3 765,-66 1064,-209 149,-71 256,-144 321,-219 -85,268 -352,575 -800,922 l -560,427 c 377,48 744,26 1100,-66 340,-92 643,-238 911,-438 123,703 280,1315 474,1838 271,747 601,1261 988,1543 34,27 47,-26 40,-158 l -25,-275 305,331 c 228,224 491,399 790,524 l 356,347 428,504 c 454,536 835,918 1140,1145 322,241 628,360 916,356 265,-3 603,-159 1014,-468 l 763,-672 1141,-1186 c 288,-129 543,-331 763,-606 153,-231 233,-334 240,-311 13,55 6,155 -21,301 -37,169 -56,293 -56,371 272,-183 506,-419 703,-707 l 214,-382 142,494 c 180,-292 365,-642 555,-1049 384,-811 603,-1502 657,-2072 61,-652 53,-1197 -25,-1634 -109,-452 -180,-851 -214,-1197 541,179 782,266 1076,41 -360,-122 -377,-282 -644,-1074 -173,-527 -285,-1090 -336,-1691 -135,-872 -237,-1442 -305,-1710 -119,-455 -314,-927 -586,-1416 -193,-349 -412,-650 -656,-901 -326,-329 -720,-601 -1181,-814 -520,-241 -1109,-421 -1767,-540 z"
   id="path1-3"
   style="fill:#000000;fill-rule:nonzero" />

     </g>

    </g>

    <g
   id="g6">
     <g
   id="g5">
      <g
   id="g4">
       <path
   class="fil1"
   d="m 128119,153228 c 329,-366 419,-506 269,-417 -967,580 -2036,1033 -3207,1359 -587,163 -1078,268 -1471,316 -58,695 -89,1176 -92,1441 -3,234 14,556 51,967 27,275 92,553 193,835 l 189,585 c 47,282 85,837 112,1665 17,662 85,1130 203,1405 150,346 455,781 917,1304 244,274 534,582 870,921 l 642,692 c 336,309 660,464 972,464 218,0 472,-109 764,-326 l 611,-535 c 407,-373 772,-746 1095,-1120 427,-495 712,-918 855,-1267 109,-265 193,-749 254,-1451 58,-734 172,-1331 342,-1792 149,-411 247,-764 295,-1059 l 30,-326 c 51,-431 87,-1156 107,-2174 l 16,-1395 c 0,-761 -138,-1069 -413,-927 -1083,570 -2111,1003 -3085,1298 -845,258 -1224,328 -1135,209 z"
   id="path2-4"
   style="fill:#d1d1d1;fill-opacity:1;fill-rule:nonzero" />

      </g>

     </g>

    </g>

    <g
   id="g9">
     <g
   id="g8">
      <g
   id="g7">
       <path
   class="fil1"
   d="m 123231,157047 c 78,203 187,420 326,651 l -265,-1405 c -68,20 -115,59 -142,117 -62,129 -34,341 81,637 z"
   id="path5-5"
   style="fill:#ffffff;fill-rule:nonzero" />

      </g>

     </g>

    </g>

    <g
   id="g12">
     <g
   id="g11">
      <g
   id="g10">
       <path
   class="fil1"
   d="m 122773,156237 92,519 c 74,377 147,649 218,815 72,166 194,346 367,540 l 244,244 -112,-514 c -146,-238 -264,-464 -356,-677 -153,-360 -194,-618 -122,-774 37,-75 97,-122 178,-143 l -71,-305 c -65,-129 -133,-212 -204,-250 -139,-81 -217,100 -234,545 z"
   id="path8-4"
   style="fill:#d1d1d1;fill-opacity:1;fill-rule:nonzero" />

      </g>

     </g>

    </g>

    <g
   id="g15">
     <g
   id="g14">
      <g
   id="g13">
       <path
   class="fil1"
   d="m 132553,156410 c -30,-58 -78,-97 -142,-117 l -265,1405 c 370,-638 505,-1067 407,-1288 z"
   id="path11-3"
   style="fill:#ffffff;fill-rule:nonzero" />

      </g>

     </g>

    </g>

    <g
   id="g18">
     <g
   id="g17"
   style="fill:#d1d1d1;fill-opacity:1">
      <g
   id="g16"
   style="fill:#d1d1d1;fill-opacity:1">
       <path
   class="fil1"
   d="m 132624,156486 c 27,167 -32,415 -178,744 -105,241 -215,448 -331,621 l -112,504 245,-244 c 173,-194 295,-374 366,-540 116,-265 219,-710 311,-1334 -17,-445 -95,-626 -235,-545 l -203,250 -71,305 c 118,31 188,111 208,239 z"
   id="path14-4"
   style="fill:#d1d1d1;fill-opacity:1;fill-rule:nonzero" />

      </g>

     </g>

    </g>

    <g
   id="g21">
     <g
   id="g20">
      <g
   id="g19">
      </g>

     </g>

    </g>

    <g
   id="g24">
     <g
   id="g23">
      <g
   id="g22">
      </g>

     </g>

    </g>

    <g
   id="g27">
     <g
   id="g26">
      <g
   id="g25">
       
      </g>

     </g>

    </g>

   </g>

  </g>
  <path
     class="fil2"
     d="M 18.123373,52.428908 C 28.165072,52.061625 81.882294,54.046521 92.93989,52.092883 94.088624,45.466144 92.142804,38.3549 92.002141,31.650016 92.002141,24.648177 90.806513,14.458002 88.56374,8.40954 73.864568,3.3222675 44.778808,3.5098162 31.33778,13.106085 26.227063,15.989654 18.842311,35.236895 18.123373,52.428908 Z"
     id="path27"
     style="clip-rule:evenodd;fill:#732b86;fill-rule:evenodd;stroke-width:0.00781454;image-rendering:optimizeQuality;shape-rendering:geometricPrecision;text-rendering:geometricPrecision" />
  <path
     class="fil3"
     d="m 92.588232,40.136618 c 12.456388,1.547283 16.207378,7.423824 21.716638,7.728593 C 110.4523,30.813858 109.17853,14.33297 88.56374,8.40954 c 1.906753,6.048462 3.297738,16.316783 3.297738,23.318622 z"
     id="path28"
     style="clip-rule:evenodd;fill:#42184c;fill-rule:evenodd;stroke-width:0.00781454;image-rendering:optimizeQuality;shape-rendering:geometricPrecision;text-rendering:geometricPrecision" />
  <path
     class="fil4"
     d="m 91.040955,57.227043 c 6.462631,2.234961 21.958885,2.133371 22.169885,1.523836 0.78146,-0.07814 0.69549,-0.101588 0.96119,-2.359993 0.21098,-1.789531 0.13284,-6.603295 0.13284,-8.525675 -4.65747,-0.257881 -12.05785,-7.087798 -21.732267,-7.806738 1.820794,9.830706 -0.101588,13.917717 -1.531648,17.16857 z"
     id="path29"
     style="clip-rule:evenodd;fill:#100613;fill-rule:evenodd;stroke-width:0.00781454;image-rendering:optimizeQuality;shape-rendering:geometricPrecision;text-rendering:geometricPrecision" />
  <path
     class="fil4"
     d="m 17.029343,73.035879 c 2.039591,-5.39204 0.914296,-5.438926 0.929925,-9.73693 2.375623,-0.265695 41.831293,-2.789795 50.802399,4.829392 6.822105,-3.102376 21.138364,-9.314946 24.389217,-10.362094 1.281579,-1.539466 0.547016,-2.992973 -0.640793,-5.603034 -1.469136,3.704098 -19.434793,5.415485 -23.170148,8.259981 0.08596,-8.283425 -34.048,-8.728853 -57.171251,-5.118531 C 7.003274,57.680287 2.8850054,60.860809 -0.59247039,63.666234 4.5651337,71.793366 10.73863,73.082767 17.029343,73.035879 Z"
     id="path30"
     style="clip-rule:evenodd;fill:#100613;fill-rule:evenodd;stroke-width:0.00781454;image-rendering:optimizeQuality;shape-rendering:geometricPrecision;text-rendering:geometricPrecision" />
  <path
     class="fil3"
     d="M 19.162708,52.217915 C 14.55213,53.233807 7.5034055,55.929828 -0.77220504,63.775637 10.433862,59.555778 61.142479,57.164526 69.902591,65.471393 c 9.916668,-5.939057 20.2475,-7.462895 23.037299,-13.37851 -9.901043,-7.40038 -69.823019,-1.023706 -73.777182,0.125032 z"
     id="path31"
     style="clip-rule:evenodd;fill:#42184c;fill-rule:evenodd;stroke-width:0.00781454;image-rendering:optimizeQuality;shape-rendering:geometricPrecision;text-rendering:geometricPrecision" />
  <path
     class="fil4"
     d="M 72.926822,5.4243817 78.88151,6.1198761 C 78.467339,4.7054422 77.709329,4.5257076 76.396485,4.361603 74.896093,4.1740533 73.645761,4.6038533 72.926822,5.4243817 Z"
     id="path32"
     style="clip-rule:evenodd;fill:#100613;fill-rule:evenodd;stroke-width:0.00781454;image-rendering:optimizeQuality;shape-rendering:geometricPrecision;text-rendering:geometricPrecision" />
  <g
     id="_2394738087536"
     style="clip-rule:evenodd;fill-rule:evenodd;image-rendering:optimizeQuality;shape-rendering:geometricPrecision;text-rendering:geometricPrecision"
     transform="matrix(0.00781454,0,0,0.00781454,-933.81412,-1149.0661)">
   <g
   id="g34">
    <g
   id="g33">
     <path
   class="fil0 str0"
   d="m 132796,156333 h -9770 l 559,3077 h 3062 l 25,-5 h 5 c 59,-30 123,-139 193,-327 l 128,-470 c 60,-237 154,-437 282,-598 175,-224 376,-336 604,-336 234,0 438,112 613,336 126,165 218,364 277,598 l 134,470 c 69,192 132,301 188,327 l 25,5 h 3116 z"
   id="path33"
   style="fill:#000000;fill-rule:nonzero;stroke:#000000;stroke-width:200;stroke-miterlimit:2.61313" />

    </g>

   </g>

   <g
   id="g35">
    <path
   class="fil5 str1"
   d="m 126998,158608 c 60,-237 154,-437 282,-598 175,-224 376,-336 604,-336 234,0 438,112 613,336 126,165 218,364 277,598 l 134,470 c 69,192 132,301 188,327 l 25,5 h 3116 l 559,-3077 h -9770 l 559,3077 h 3062 l 25,-5 h 5 c 59,-30 123,-139 193,-327 z"
   id="path34"
   style="fill:none;fill-rule:nonzero;stroke:#a43dbf;stroke-width:200;stroke-miterlimit:2.61313" />

   </g>

  </g>
  <g
     id="_2394738090032"
     style="clip-rule:evenodd;fill-rule:evenodd;image-rendering:optimizeQuality;shape-rendering:geometricPrecision;text-rendering:geometricPrecision"
     transform="matrix(0.00781454,0,0,0.00781454,-933.81412,-1149.0661)">
   <g
   id="g37">
    <g
   id="g36">
     <path
   class="fil6"
   d="m 127179,159092 76,-234 c 24,-90 73,-202 148,-337 17,-52 54,-111 112,-177 99,-114 207,-171 326,-171 133,0 247,57 342,171 l 107,177 c 64,128 110,240 137,337 l 82,234 c 58,114 139,192 245,234 l 142,36 h 219 l -25,-10 c -61,-28 -126,-140 -194,-338 l -137,-493 c -68,-253 -164,-464 -286,-634 -180,-235 -390,-353 -632,-353 -234,0 -441,118 -621,353 -133,180 -230,391 -291,634 l -137,493 c -68,198 -133,310 -194,338 h -5 l -31,10 h 224 l 148,-36 c 109,-45 191,-123 245,-234 z"
   id="path35"
   style="fill:#9900cc;fill-rule:nonzero" />

    </g>

   </g>

   <g
   id="g38">
    <path
   class="fil7"
   d="m 127255,158858 c 24,-90 73,-202 148,-337 17,-52 54,-111 112,-177 99,-114 207,-171 326,-171 133,0 247,57 342,171 l 107,177 c 64,128 110,240 137,337 l 82,234 c 58,114 139,192 245,234 l 142,36 h 219 l -25,-10 c -61,-28 -126,-140 -194,-338 l -137,-493 c -68,-253 -164,-464 -286,-634 -180,-235 -390,-353 -632,-353 -234,0 -441,118 -621,353 -133,180 -230,391 -291,634 l -137,493 c -68,198 -133,310 -194,338 h -5 l -31,10 h 224 l 148,-36 c 109,-45 191,-123 245,-234 z"
   id="path37"
   style="fill:#a43dbf;fill-rule:nonzero" />

   </g>

  </g>
</svg>
