<?xml version="1.0" encoding="UTF-8" standalone="no"?>
<!-- Generator: Adobe Illustrator 24.1.0, SVG Export Plug-In . SVG Version: 6.00 Build 0)  -->

<svg
   version="1.1"
   id="png"
   x="0px"
   y="0px"
   viewBox="0 0 370 80"
   style="enable-background:new 0 0 370 80;"
   xml:space="preserve"
   sodipodi:docname="title-darkmode.svg"
   inkscape:version="1.3.2 (091e20e, 2023-11-25, custom)"
   xmlns:inkscape="http://www.inkscape.org/namespaces/inkscape"
   xmlns:sodipodi="http://sodipodi.sourceforge.net/DTD/sodipodi-0.dtd"
   xmlns="http://www.w3.org/2000/svg"
   xmlns:svg="http://www.w3.org/2000/svg"><defs
   id="defs12" /><sodipodi:namedview
   id="namedview12"
   pagecolor="#ffffff"
   bordercolor="#000000"
   borderopacity="0.25"
   inkscape:showpageshadow="2"
   inkscape:pageopacity="0.0"
   inkscape:pagecheckerboard="0"
   inkscape:deskcolor="#d1d1d1"
   inkscape:zoom="1.677027"
   inkscape:cx="49.790492"
   inkscape:cy="163.68251"
   inkscape:window-width="1920"
   inkscape:window-height="1051"
   inkscape:window-x="-9"
   inkscape:window-y="-9"
   inkscape:window-maximized="1"
   inkscape:current-layer="png" />
<style
   type="text/css"
   id="style1">
	.st0{fill:#EEEEEE;}
	.st1{fill:#999999;}
	.st2{fill:#555555;}
</style>










<path
   class="st1"
   d="M351.3,5.5l-12.6,1.7c-0.1,0-0.2,0.1-0.2,0.2l-0.1,8.8c-0.2-0.1-0.5-0.1-0.7-0.1c-1.6,0-2.9,1.3-2.9,2.9  c0,1.6,1.3,3,2.9,3c0,0,0,0,0,0l0,0c1.6,0,2.9-1.3,2.9-2.9l0.1-8.2l8.5-1.1v4.7c-0.2-0.1-0.5-0.1-0.7-0.1c-1.6,0-2.9,1.3-2.9,2.9  c0,1.6,1.3,2.9,2.9,2.9c1.6,0,2.9-1.3,2.9-2.9l0.1-11.7C351.6,5.7,351.5,5.6,351.3,5.5C351.3,5.6,351.3,5.6,351.3,5.5"
   id="path11"
   style="fill:#2baa00;fill-opacity:1" />
<path
   class="st2"
   d="M367.5,0.5c-0.1,0-0.1-0.1-0.2-0.1l-8.5,1.2c-0.1,0-0.2,0.1-0.2,0.2v5.9c-0.1,0-0.3,0-0.4,0  c-1.1,0-2.1,0.9-2.1,2.1s0.9,2.1,2.1,2.1l0,0c1.1,0,2-0.9,2.1-2.1V4.3l5.6-0.7v3c-0.1,0-0.3,0-0.4,0c-1.1,0-2.1,0.9-2.1,2.1  s0.9,2.1,2.1,2.1c1.1,0,2-0.9,2.1-2l0-7.9c0-0.1,0-0.1-0.1-0.2L367.5,0.5z"
   id="path12"
   style="fill:#210c9e;fill-opacity:1" />
<path
   class="fil0"
   d="m 48.279619,42.995072 h 18.12 c 1.02,0 1.3,0.75 0.85,2.23 -3.82,12.17 -7.58,20.52 -11.3,25.05 -3.73,4.55 -7.87,7 -12.42,7.39 -4.53,0.36 -8.21,-0.84 -11.05,-3.6 -2.83,-2.77 -4.38,-7.9 -4.63,-15.42 -0.27,-7.52 0.78,-15.6 3.15,-24.23 2.35,-8.64 5.8,-15.64 10.35,-20.99 4.53,-5.3500002 8.88,-8.4100002 13.05,-9.1800002 4.17,-0.77 7.4,-0.35 9.7,1.25 2.3,1.6 4.05,4.23 5.25,7.9300002 1.22,3.7 1.82,6.49 1.82,8.35 0,1.87 -0.65,3.07 -1.95,3.59 l -3.44,1.03 c -0.63,0.13 -1.16,0 -1.58,-0.37 -0.43,-0.38 -0.7,-1.6 -0.78,-3.66 -0.1,-2.07 -0.62,-4.19 -1.55,-6.35 -0.92,-2.17 -2.15,-3.44 -3.69,-3.84 -3.15,-0.8 -6.58,1.2 -10.26,6.04 -3.7,4.83 -6.55,10.91 -8.55,18.25 -2,7.33 -3.09,13.5 -3.25,18.51 -0.17,5.02 0.26,8.89 1.3,11.62 1.01,2.73 2.7,4.02 5.05,3.85 2.35,-0.15 4.73,-1.72 7.15,-4.65 2.43,-2.95 4.81,-8.25 7.15,-15.9 h -9.62 c -1.27,0 -1.65,-0.95 -1.17,-2.83 l 0.79,-2.89 c 0.25,-0.78 0.76,-1.18 1.51,-1.18 z m 38.34,-3.4 c 2.1,-3.45 4.06,-6.3 5.88,-8.58 1.8,-2.27 3.12,-3.7 3.95,-4.27 0.83,-0.57 2.28,-0.85 4.370001,-0.85 h 0.98 c 1.95,0 2.62,0.75 2,2.25 -0.33,0.78 -1.15,1.75 -2.45,2.92 -1.3,1.18 -3.070001,3.18 -5.300001,6.01 -2.22,2.82 -3.33,4.67 -3.33,5.52 0,1.75 0.83,3.38 2.48,4.92 0.4,0.33 0.5,0.68 0.35,1.05 -0.17,0.38 -0.52,0.63 -1.03,0.76 l -3.8,0.69 c -1.09,0.18 -1.9,0.06 -2.47,-0.35 -0.58,-0.42 -1.55,-1.94 -2.95,-4.54 l -7.67,29.69 c -0.43,1.45 -1.43,2.18 -3.05,2.18 h -2.88 c -1.9,0 -2.63,-0.77 -2.2,-2.3 l 12.2,-46.48 c 0.33,-1.35 1.25,-2.02 2.78,-2.02 h 3.1 c 0.87,0 1.47,0.15 1.75,0.45 0.3,0.28 0.35,0.85 0.15,1.67 z m 11.2,22.92 c 0.3,-8.94 2.530001,-17.37 6.720001,-25.35 4.16,-7.99 9.48,-11.9 15.94,-11.77 3.36,0.18 5.97,1.87 7.82,5.03 1.4,2.17 1.99,5.87 1.72,11.09 -0.27,9.86 -2.97,19 -8.13,27.4 -3.55,6.15 -8.34,9.11 -14.34,8.88 -2.11,-0.07 -4.08,-1 -5.92,-2.78 -2.730001,-2.6 -4.010001,-6.77 -3.810001,-12.5 z m 17.110001,3.96 c 4.47,-7.16 6.84,-15.2 7.09,-24.06 0.07,-3.94 -0.13,-6.57 -0.6,-7.9 -0.47,-1.35 -1.43,-2.04 -2.92,-2.07 -1.48,-0.03 -2.83,0.67 -4.05,2.12 -1.21,1.43 -2.41,3.43 -3.57,5.98 -2.93,5.97 -4.51,12.93 -4.76,20.92 -0.14,6.03 0.9,9.13 3.08,9.33 1.9,0.07 3.8,-1.37 5.73,-4.32 z m 16.39,-3.96 c 0.3,-8.94 2.53,-17.37 6.71,-25.35 4.17,-7.99 9.49,-11.9 15.95,-11.77 3.36,0.18 5.97,1.87 7.82,5.03 1.4,2.17 1.99,5.87 1.72,11.09 -0.27,9.86 -2.97,19 -8.13,27.4 -3.56,6.15 -8.34,9.11 -14.34,8.88 -2.12,-0.07 -4.08,-1 -5.92,-2.78 -2.73,-2.6 -4.01,-6.77 -3.81,-12.5 z m 17.11,3.96 c 4.47,-7.16 6.84,-15.2 7.09,-24.06 0.06,-3.94 -0.13,-6.57 -0.6,-7.9 -0.47,-1.35 -1.44,-2.04 -2.92,-2.07 -1.48,-0.03 -2.83,0.67 -4.05,2.12 -1.22,1.43 -2.42,3.43 -3.57,5.98 -2.93,5.97 -4.51,12.93 -4.76,20.92 -0.14,6.03 0.9,9.13 3.08,9.33 1.9,0.07 3.8,-1.37 5.73,-4.32 z m 30.09,1.07 c 6.12,-10.05 11.28,-23.35 15.5,-39.88 0.33,-1.39 1.27,-2 2.8,-1.87 l 2.78,0.22 c 1.84,0.31 2.53,1.15 2.12,2.48 -5.25,17.87 -11.3,32.12 -18.19,42.77 -2.53,3.86 -4.71,5.78 -6.55,5.71 l -2.78,-0.2 c -2.05,-0.13 -2.98,-1.75 -2.78,-4.88 0.76,-12.4 0.66,-26.42 -0.3,-42.03 -0.14,-2.45 0.66,-3.67 2.38,-3.67 h 2.75 c 1.52,0 2.3,0.77 2.37,2.3 0.88,15.98 0.85,29 -0.1,39.05 z m 34.23,-62.9500002 h 16.6 c 5.02,0 8.87,1.32 11.55,3.95 2.69,2.6300002 4.02,6.6700002 3.98,12.0800002 -0.03,5.44 -1.31,9.79 -3.83,13.05 -2.53,3.27 -5.05,5.42 -7.6,6.47 4.4,2.53 6,7.28 4.78,14.22 -1.2,6.95 -3.96,12.45 -8.29,16.51 -4.32,4.09 -10.32,6.12 -17.97,6.12 h -10.5 c -0.82,0 -1.4,-0.3 -1.79,-0.9 -0.36,-0.6 -0.45,-1.33 -0.21,-2.18 l 15.86,-62.42 h -2.48 c -0.88,0 -1.65,-0.27 -2.32,-0.8 -0.66,-0.53 -0.88,-1.1500002 -0.66,-1.8200002 l 0.58,-2.28 c 0.14,-0.53 0.45,-0.98 0.97,-1.4 0.5,-0.4 0.95,-0.6 1.33,-0.6 z m 2.73,38.6000002 -6.91,27.02 6.33,-0.42 c 3.38,-0.17 6.57,-1.62 9.53,-4.35 2.99,-2.75 4.94,-6.4 5.87,-11 0.93,-4.58 0.33,-7.73 -1.78,-9.45 -0.82,-0.75 -2.05,-1.23 -3.72,-1.47 -1.65,-0.21 -4.76,-0.33 -9.32,-0.33 z m 8.01,-31.7 -6.17,24.5 8.08,0.2 c 3.12,0.1 5.57,-1.12 7.35,-3.65 1.77,-2.53 2.93,-5.48 3.52,-8.85 0.57,-3.37 0.28,-6.23 -0.87,-8.62 -1.13,-2.38 -3.13,-3.58 -6,-3.58 z m 21.11,51.02 c 0.3,-8.94 2.53,-17.37 6.72,-25.35 4.16,-7.99 9.48,-11.9 15.95,-11.77 3.35,0.18 5.96,1.87 7.81,5.03 1.4,2.17 1.99,5.87 1.72,11.09 -0.27,9.86 -2.97,19 -8.13,27.4 -3.55,6.15 -8.34,9.11 -14.34,8.88 -2.11,-0.07 -4.08,-1 -5.91,-2.78 -2.74,-2.6 -4.02,-6.77 -3.82,-12.5 z m 17.12,3.96 c 4.46,-7.16 6.83,-15.2 7.08,-24.06 0.07,-3.94 -0.13,-6.57 -0.6,-7.9 -0.47,-1.35 -1.43,-2.04 -2.92,-2.07 -1.48,-0.03 -2.83,0.67 -4.05,2.12 -1.21,1.43 -2.41,3.43 -3.56,5.98 -2.94,5.97 -4.52,12.93 -4.77,20.92 -0.13,6.03 0.9,9.13 3.08,9.33 1.9,0.07 3.8,-1.37 5.74,-4.32 z m 10.6,8.04 c 8.08,-9.82 14.11,-17.47 18.11,-23 -1.65,-7 -3.6,-14.22 -5.8,-21.64 -0.85,-2.45 -0.33,-3.68 1.55,-3.68 h 2.7 c 1.42,0 2.37,0.78 2.84,2.37 1.8,6.18 3.3,11.78 4.5,16.8 2.93,-4.29 6.63,-10.25 11.1,-17.9 0.45,-0.85 1.35,-1.27 2.68,-1.27 h 3.42 c 1.78,0 1.95,1.18 0.48,3.57 -3.58,6.23 -8.83,14.1 -15.77,23.6 1.54,6.8 2.91,13.96 4.11,21.53 0.19,1.33 -0.36,2.03 -1.62,2.1 l -2.99,0.3 c -0.83,0.12 -1.41,0 -1.73,-0.4 -0.32,-0.38 -0.62,-1.28 -0.92,-2.7 -0.66,-4.55 -1.53,-9.3 -2.63,-14.23 -4.67,5.83 -7.73,9.63 -9.18,11.43 -1.45,1.8 -2.3,2.87 -2.55,3.2 -0.27,0.32 -0.44,0.53 -0.5,0.62 -0.09,0.1 -0.24,0.28 -0.45,0.56 -0.24,0.27 -0.44,0.45 -0.6,0.52 -0.19,0.08 -0.4,0.18 -0.67,0.32 -0.38,0.25 -0.92,0.38 -1.6,0.38 h -2.87 c -0.95,0 -1.56,-0.28 -1.85,-0.85 -0.3,-0.57 -0.21,-1.12 0.24,-1.63 z"
   id="path1"
   style="clip-rule:evenodd;fill:#ffffff;fill-rule:nonzero;stroke-width:0.01;image-rendering:optimizeQuality;shape-rendering:geometricPrecision;text-rendering:geometricPrecision" /></svg>
